<svg width="36" height="36" viewBox="0 0 36 36" fill="none" xmlns="http://www.w3.org/2000/svg">
<rect x="0.5" y="0.5" width="35" height="35" rx="11.5" fill="white"/>
<rect x="0.5" y="0.5" width="35" height="35" rx="11.5" stroke="#EAECF0"/>
<path fill-rule="evenodd" clip-rule="evenodd" d="M18.7421 18.7083V23.257C18.7421 23.6673 18.4095 24 17.9993 24C17.589 24 17.2564 23.6673 17.2564 23.257V18.7083H12.7262C12.3435 18.6687 12.0527 18.3461 12.0527 17.9613C12.0527 17.5765 12.3435 17.2539 12.7262 17.2143H17.2484V12.6737C17.2881 12.2909 17.6105 12 17.9953 12C18.38 12 18.7025 12.2909 18.7421 12.6737V17.2143H23.2723C23.655 17.2539 23.9458 17.5765 23.9458 17.9613C23.9458 18.3461 23.655 18.6687 23.2723 18.7083H18.7421Z" fill="#040415"/>
</svg>
