<svg width="38" height="38" viewBox="0 0 38 38" fill="none" xmlns="http://www.w3.org/2000/svg">
<path d="M28.0567 14.25L27.2334 27.2175C27.0909 29.6559 25.3334 31.6667 22.1667 31.6667H15.8334C12.6667 31.6667 10.9092 29.6559 10.7667 27.2175L9.94336 14.25C9.94336 14.25 13.5375 12.8884 19 14.25C25.365 15.8334 28.0567 14.25 28.0567 14.25Z" fill="#A0B4E6"/>
<path opacity="0.4" d="M28.5 7.17251L28.0566 14.25C28.0566 14.25 25.365 15.8333 19 14.25C13.5375 12.8883 9.9433 14.25 9.9433 14.25L9.49997 7.17251C9.4683 6.71334 9.83247 6.33334 10.2916 6.33334H27.7083C28.1675 6.33334 28.5316 6.71334 28.5 7.17251Z" fill="#396CE8"/>
</svg>
