<svg width="49" height="49" viewBox="0 0 49 49" fill="none" xmlns="http://www.w3.org/2000/svg">
<circle cx="24.432" cy="24.432" r="21.432" stroke="white" stroke-opacity="0.34" stroke-width="5"/>
<path d="M24.0117 45.864C35.8483 45.864 45.4437 36.2685 45.4437 24.432C45.4437 12.5954 35.8483 3 24.0117 3" stroke="white" stroke-width="5" stroke-linejoin="round"/>
<g clip-path="url(#clip0_11101_17629)">
<path fill-rule="evenodd" clip-rule="evenodd" d="M30.5857 15.6071V16.9753H29.6735V17.8874L29.7473 17.8886C30.9726 17.9276 31.9539 18.9331 31.9539 20.1678C31.9539 21.2159 31.1702 22.4898 29.6307 24.0476C29.3113 26.5973 27.2381 28.6015 24.6569 28.8146L24.6567 29.7455H25.5688V30.6576H26.481V31.5698H27.8492V33.8502H20.552V31.5698H21.9202V30.6576H22.8324V29.7455H23.7445L23.7446 28.8146C21.1633 28.6017 19.0899 26.5974 18.7704 24.0477L18.8612 24.139C17.2618 22.5395 16.4473 21.2363 16.4473 20.1678C16.4473 18.9084 17.4682 17.8874 18.7277 17.8874V16.9753H17.8155V15.6071H30.5857ZM18.7277 18.7996C17.972 18.7996 17.3594 19.4122 17.3594 20.1678C17.3594 20.7721 17.8104 21.6149 18.7276 22.665L18.7277 18.7996ZM29.6738 18.7996L29.6739 22.6646C30.5909 21.6147 31.0418 20.772 31.0418 20.1678C31.0418 19.4123 30.4294 18.7998 29.6738 18.7996ZM25.1128 16.9753V22.4482L26.481 21.08L27.8492 22.4482V16.9753H25.1128Z" fill="white"/>
</g>
<defs>
<clipPath id="clip0_11101_17629">
<rect width="15.5067" height="18.2431" fill="white" transform="translate(16.4473 15.6071)"/>
</clipPath>
</defs>
</svg>
