<svg width="45" height="44" viewBox="0 0 45 44" fill="none" xmlns="http://www.w3.org/2000/svg">
<path d="M13.7624 21.428C12.9304 21.012 12.5144 20.356 12.5144 19.46C12.5144 19.028 12.6224 18.632 12.8384 18.272C13.0544 17.912 13.3784 17.628 13.8104 17.42C14.2424 17.204 14.7704 17.096 15.3944 17.096C16.0104 17.096 16.5344 17.204 16.9664 17.42C17.4064 17.628 17.7344 17.912 17.9504 18.272C18.1664 18.632 18.2744 19.028 18.2744 19.46C18.2744 19.908 18.1584 20.304 17.9264 20.648C17.7024 20.984 17.4024 21.244 17.0264 21.428C17.4824 21.596 17.8424 21.872 18.1064 22.256C18.3704 22.632 18.5024 23.076 18.5024 23.588C18.5024 24.108 18.3704 24.568 18.1064 24.968C17.8424 25.368 17.4744 25.676 17.0024 25.892C16.5304 26.108 15.9944 26.216 15.3944 26.216C14.7944 26.216 14.2584 26.108 13.7864 25.892C13.3224 25.676 12.9584 25.368 12.6944 24.968C12.4304 24.568 12.2984 24.108 12.2984 23.588C12.2984 23.068 12.4304 22.62 12.6944 22.244C12.9584 21.868 13.3144 21.596 13.7624 21.428ZM16.9664 19.628C16.9664 19.18 16.8264 18.836 16.5464 18.596C16.2664 18.356 15.8824 18.236 15.3944 18.236C14.9144 18.236 14.5344 18.356 14.2544 18.596C13.9744 18.836 13.8344 19.184 13.8344 19.64C13.8344 20.04 13.9784 20.368 14.2664 20.624C14.5624 20.872 14.9384 20.996 15.3944 20.996C15.8504 20.996 16.2264 20.868 16.5224 20.612C16.8184 20.356 16.9664 20.028 16.9664 19.628ZM15.3944 22.028C14.8664 22.028 14.4344 22.16 14.0984 22.424C13.7704 22.68 13.6064 23.052 13.6064 23.54C13.6064 23.996 13.7664 24.368 14.0864 24.656C14.4064 24.936 14.8424 25.076 15.3944 25.076C15.9384 25.076 16.3664 24.932 16.6784 24.644C16.9984 24.356 17.1584 23.988 17.1584 23.54C17.1584 23.06 16.9944 22.688 16.6664 22.424C16.3464 22.16 15.9224 22.028 15.3944 22.028ZM19.9388 21.512C19.9388 20.128 20.1708 19.048 20.6348 18.272C21.1068 17.488 21.9148 17.096 23.0588 17.096C24.2028 17.096 25.0068 17.488 25.4708 18.272C25.9428 19.048 26.1788 20.128 26.1788 21.512C26.1788 22.912 25.9428 24.008 25.4708 24.8C25.0068 25.584 24.2028 25.976 23.0588 25.976C21.9148 25.976 21.1068 25.584 20.6348 24.8C20.1708 24.008 19.9388 22.912 19.9388 21.512ZM24.8348 21.512C24.8348 20.864 24.7908 20.316 24.7028 19.868C24.6228 19.42 24.4548 19.056 24.1988 18.776C23.9428 18.488 23.5628 18.344 23.0588 18.344C22.5548 18.344 22.1748 18.488 21.9188 18.776C21.6628 19.056 21.4908 19.42 21.4028 19.868C21.3228 20.316 21.2828 20.864 21.2828 21.512C21.2828 22.184 21.3228 22.748 21.4028 23.204C21.4828 23.66 21.6508 24.028 21.9068 24.308C22.1708 24.588 22.5548 24.728 23.0588 24.728C23.5628 24.728 23.9428 24.588 24.1988 24.308C24.4628 24.028 24.6348 23.66 24.7148 23.204C24.7948 22.748 24.8348 22.184 24.8348 21.512ZM27.4103 19.364C27.4103 18.78 27.5783 18.324 27.9143 17.996C28.2583 17.66 28.6983 17.492 29.2343 17.492C29.7703 17.492 30.2063 17.66 30.5423 17.996C30.8863 18.324 31.0583 18.78 31.0583 19.364C31.0583 19.948 30.8863 20.408 30.5423 20.744C30.2063 21.08 29.7703 21.248 29.2343 21.248C28.6983 21.248 28.2583 21.08 27.9143 20.744C27.5783 20.408 27.4103 19.948 27.4103 19.364ZM34.7303 17.648L29.9423 26H28.5983L33.3863 17.648H34.7303ZM29.2343 18.32C28.7303 18.32 28.4783 18.668 28.4783 19.364C28.4783 20.068 28.7303 20.42 29.2343 20.42C29.4743 20.42 29.6583 20.336 29.7863 20.168C29.9223 19.992 29.9902 19.724 29.9902 19.364C29.9902 18.668 29.7383 18.32 29.2343 18.32ZM32.2943 24.272C32.2943 23.688 32.4623 23.232 32.7983 22.904C33.1423 22.568 33.5823 22.4 34.1183 22.4C34.6463 22.4 35.0783 22.568 35.4143 22.904C35.7583 23.232 35.9303 23.688 35.9303 24.272C35.9303 24.856 35.7583 25.316 35.4143 25.652C35.0783 25.988 34.6463 26.156 34.1183 26.156C33.5823 26.156 33.1423 25.988 32.7983 25.652C32.4623 25.316 32.2943 24.856 32.2943 24.272ZM34.1063 23.228C33.6023 23.228 33.3503 23.576 33.3503 24.272C33.3503 24.968 33.6023 25.316 34.1063 25.316C34.6103 25.316 34.8623 24.968 34.8623 24.272C34.8623 23.576 34.6103 23.228 34.1063 23.228Z" fill="white"/>
<circle cx="22.5" cy="22" r="20" stroke="#FFCDC5" stroke-opacity="0.25" stroke-width="4"/>
<mask id="path-3-inside-1_9209_2128" fill="white">
<path d="M22.5 1.99813C22.5 0.894591 23.3964 -0.00941558 24.4954 0.0906749C27.2759 0.343913 29.9892 1.12477 32.4878 2.39786C35.5812 3.97403 38.2577 6.25995 40.2984 9.06872C42.3391 11.8775 43.686 15.1294 44.2291 18.5584C44.7723 21.9875 44.4961 25.4965 43.4232 28.7984C42.3504 32.1003 40.5113 35.1014 38.0564 37.5563C35.6014 40.0113 32.6003 41.8504 29.2984 42.9232C25.9965 43.9961 22.4875 44.2723 19.0584 43.7291C16.2888 43.2905 13.6347 42.3274 11.2363 40.8979C10.2884 40.3329 10.0946 39.0746 10.7432 38.1819C11.3918 37.2891 12.6369 37.102 13.596 37.6478C15.4754 38.7172 17.5371 39.4421 19.6836 39.7821C22.4898 40.2266 25.3613 40.0006 28.0635 39.1226C30.7656 38.2446 33.2216 36.7396 35.2306 34.7306C37.2396 32.7216 38.7446 30.2656 39.6226 27.5635C40.5006 24.8613 40.7266 21.9898 40.2821 19.1836C39.8376 16.3774 38.7353 13.7162 37.0653 11.4177C35.3953 9.1191 33.205 7.24841 30.6735 5.95854C28.7371 4.9719 26.6431 4.34652 24.4941 4.10702C23.3973 3.98479 22.5 3.10166 22.5 1.99813Z"/>
</mask>
<path d="M22.5 1.99813C22.5 0.894591 23.3964 -0.00941558 24.4954 0.0906749C27.2759 0.343913 29.9892 1.12477 32.4878 2.39786C35.5812 3.97403 38.2577 6.25995 40.2984 9.06872C42.3391 11.8775 43.686 15.1294 44.2291 18.5584C44.7723 21.9875 44.4961 25.4965 43.4232 28.7984C42.3504 32.1003 40.5113 35.1014 38.0564 37.5563C35.6014 40.0113 32.6003 41.8504 29.2984 42.9232C25.9965 43.9961 22.4875 44.2723 19.0584 43.7291C16.2888 43.2905 13.6347 42.3274 11.2363 40.8979C10.2884 40.3329 10.0946 39.0746 10.7432 38.1819C11.3918 37.2891 12.6369 37.102 13.596 37.6478C15.4754 38.7172 17.5371 39.4421 19.6836 39.7821C22.4898 40.2266 25.3613 40.0006 28.0635 39.1226C30.7656 38.2446 33.2216 36.7396 35.2306 34.7306C37.2396 32.7216 38.7446 30.2656 39.6226 27.5635C40.5006 24.8613 40.7266 21.9898 40.2821 19.1836C39.8376 16.3774 38.7353 13.7162 37.0653 11.4177C35.3953 9.1191 33.205 7.24841 30.6735 5.95854C28.7371 4.9719 26.6431 4.34652 24.4941 4.10702C23.3973 3.98479 22.5 3.10166 22.5 1.99813Z" stroke="white" stroke-width="8" mask="url(#path-3-inside-1_9209_2128)"/>
</svg>
