<svg width="23" height="27" viewBox="0 0 23 27" fill="none" xmlns="http://www.w3.org/2000/svg">
<path d="M13.507 23.428C13.8158 23.0395 14.3781 22.9777 14.7619 23.2903C15.1455 23.6028 15.2061 24.1713 14.8976 24.5598C14.6694 24.847 14.4057 25.105 14.1262 25.3157C13.1845 26.0545 11.987 26.3889 10.798 26.2473C9.60807 26.1056 8.52221 25.4981 7.78144 24.5569C7.47458 24.1669 7.53878 23.599 7.92402 23.2883C8.30929 22.9777 8.87002 23.0419 9.17695 23.4319C9.62361 23.9993 10.282 24.368 11.006 24.4543C11.7313 24.5407 12.4614 24.3366 13.0461 23.8782C13.2185 23.7481 13.3732 23.5964 13.507 23.428ZM11.4338 0.396729C15.7914 0.396795 19.7905 3.55805 20.1916 7.75415C20.2146 8.02086 20.2238 8.2579 20.2267 8.59106L20.2277 9.46216C20.2283 9.62035 20.23 9.74736 20.2336 9.86157L20.2453 10.1155L20.3029 10.3577C20.485 11.0319 20.8053 11.662 21.2434 12.2092L21.4387 12.4387L21.5178 12.5413C22.0434 13.3268 22.344 14.2414 22.3869 15.2258L22.3859 15.7473C22.3493 16.9131 21.9211 18.0395 21.1369 18.9778C20.0982 20.0801 18.6903 20.7648 17.1945 20.9026C13.3313 21.3221 9.43278 21.3229 5.58027 20.9045C4.07408 20.7596 2.67027 20.0765 1.58613 18.9319C0.786701 17.9572 0.361423 16.7296 0.387883 15.4895L0.38886 15.1809C0.435055 14.238 0.733795 13.3243 1.25312 12.5354L1.34003 12.4241C1.94659 11.7591 2.36127 10.945 2.5412 10.0676L2.52167 10.1467L2.5246 9.45532L2.5412 8.68384C2.55259 8.35415 2.57003 8.04781 2.59589 7.74829C2.98387 3.56032 6.98124 0.39698 11.341 0.396729H11.4338ZM11.342 2.20239C7.85017 2.20248 4.66876 4.72025 4.37323 7.91138C4.35811 8.08672 4.34555 8.26787 4.33613 8.45825L4.31562 9.06177L4.30683 10.2512L4.28827 10.4348C4.04865 11.6031 3.50388 12.6861 2.7121 13.5784L2.60077 13.7639C2.38733 14.1486 2.24997 14.5665 2.1955 14.9788L2.17206 15.2258V15.509C2.15469 16.333 2.43385 17.1369 2.9162 17.7288C3.66037 18.512 4.66686 19.0023 5.75995 19.1077C9.49679 19.5134 13.2676 19.5129 17.0187 19.1057C18.1 19.0061 19.106 18.5169 19.8098 17.7727C20.3424 17.1339 20.6243 16.3268 20.6037 15.4778L20.6047 15.2659C20.5808 14.732 20.4285 14.2124 20.1623 13.7493L20.0617 13.5872L19.883 13.3782C19.2678 12.6189 18.8213 11.7373 18.5725 10.7932L18.4885 10.4368L18.4709 10.3167C18.4583 10.1416 18.4514 9.98605 18.4475 9.79907L18.4445 8.62817C18.4421 8.33066 18.4333 8.13007 18.4152 7.92017C18.1094 4.72045 14.9247 2.20239 11.4338 2.20239H11.342Z" fill="black"/>
</svg>
