<svg width="58" height="24" viewBox="0 0 58 24" fill="none" xmlns="http://www.w3.org/2000/svg">
<path fill-rule="evenodd" clip-rule="evenodd" d="M58 12.399C58 8.29737 56.0026 5.05997 52.1831 5.05997C48.3496 5.05997 46.0284 8.29668 46.0284 12.3663C46.0284 17.1893 48.7673 19.6245 52.6982 19.6245C54.6157 19.6245 56.0657 19.1923 57.1611 18.5832V15.3785C56.0657 15.9236 54.8091 16.2595 53.214 16.2595C51.6512 16.2595 50.2656 15.7145 50.0883 13.8243H57.9657C57.9657 13.6152 57.9979 12.783 57.9979 12.3983L58 12.399ZM50.0477 10.8775C50.0477 9.06682 51.1592 8.3141 52.1747 8.3141C53.1573 8.3141 54.205 9.06682 54.205 10.8775H50.0477ZM39.8177 5.06136C38.2387 5.06136 37.2246 5.79805 36.6597 6.31102L36.4495 5.31785H32.8984V24L36.926 23.1511L36.9422 18.6166C37.5224 19.0334 38.3761 19.6258 39.7945 19.6258C42.6785 19.6258 45.3045 17.3259 45.3045 12.2394C45.2883 7.59274 42.6301 5.06067 39.81 5.06067L39.8177 5.06136ZM38.8505 16.1013C37.9002 16.1013 37.3367 15.7647 36.9492 15.3486L36.933 9.40346C37.3521 8.93858 37.9317 8.61867 38.8505 8.61867C40.3167 8.61867 41.3315 10.2531 41.3315 12.3516C41.3315 14.4983 40.3328 16.1013 38.8505 16.1013ZM27.3569 4.11628L31.4007 3.25204V0L27.3569 0.848904V4.11628ZM27.3569 5.33388H31.4007V19.3533H27.3569V5.33388ZM23.0223 6.51872L22.7644 5.33388H19.284V19.3547H23.3117V9.8523C24.262 8.61867 25.8732 8.8431 26.3729 9.01943V5.33457C25.8571 5.14221 23.9726 4.78955 23.0216 6.51941L23.0223 6.51872ZM14.9669 1.84905L11.036 2.68332L11.0199 15.5172C11.0199 17.8883 12.8084 19.6349 15.1926 19.6349C16.5137 19.6349 17.4801 19.3945 18.012 19.1052V15.8525C17.4962 16.0616 14.9508 16.7976 14.9508 14.4265V8.74692H18.012V5.33388H14.9494L14.9669 1.84905ZM4.07603 9.39579C4.07603 8.77061 4.59184 8.53155 5.44545 8.53155C6.83881 8.56107 8.20626 8.91178 9.44018 9.55609V5.79875C8.103 5.26906 6.78193 5.06206 5.44545 5.06206C2.17468 5.06206 0 6.76056 0 9.59652C0 14.0188 6.12245 13.3134 6.12245 15.221C6.12245 15.9577 5.47769 16.1982 4.57572 16.1982C3.23854 16.1982 1.53061 15.6531 0.17731 14.9158V18.7282C1.67569 19.3694 3.19088 19.6342 4.57572 19.6342C7.92709 19.6342 10.2314 17.9838 10.2314 15.1158C10.2153 10.3416 4.07603 11.1905 4.07603 9.39579Z" fill="white"/>
</svg>
