<svg width="17" height="22" viewBox="0 0 17 22" fill="none" xmlns="http://www.w3.org/2000/svg">
<path d="M16.5663 7.981C16.3783 7.728 16.0803 7.579 15.7643 7.579H11.5943L12.6983 2.662C12.7813 2.292 12.6483 1.907 12.3543 1.667C12.2703 1.599 10.2813 0 7.89431 0C5.45331 0 3.4743 1.601 3.3913 1.669C3.2243 1.805 3.10731 1.992 3.05531 2.201L0.529305 12.381C0.455305 12.679 0.523305 12.995 0.712305 13.238C0.901305 13.48 1.19231 13.622 1.50031 13.622H5.5233L4.65831 20.883C4.61831 21.217 4.74731 21.553 5.00831 21.766C5.40631 22.091 5.84431 21.987 5.9383 21.959C13.4153 19.724 16.5923 9.306 16.7243 8.864C16.8143 8.561 16.7543 8.234 16.5663 7.981Z" fill="#EF4123"/>
</svg>
