<svg width="24" height="25" viewBox="0 0 24 25" fill="none" xmlns="http://www.w3.org/2000/svg">
<path d="M24 12.338C24 18.958 18.62 24.338 12 24.338C5.38 24.338 0 18.958 0 12.338C0 5.71801 5.38 0.338013 12 0.338013C12.73 0.338013 13.47 0.408013 14.18 0.538013C14.72 0.638013 15.08 1.15801 14.98 1.69801C14.88 2.23801 14.36 2.59801 13.82 2.49801C13.23 2.38801 12.61 2.33801 12 2.33801C6.49 2.33801 2 6.82801 2 12.338C2 17.848 6.49 22.338 12 22.338C17.51 22.338 22 17.848 22 12.338C22 11.728 21.94 11.118 21.84 10.518C21.74 9.97801 22.1 9.45801 22.64 9.35801C23.19 9.25801 23.7 9.61801 23.8 10.158C23.93 10.868 24 11.608 24 12.338ZM12.86 6.39801C13.41 6.47801 13.91 6.09801 13.99 5.54801C14.07 4.99801 13.69 4.49801 13.14 4.41801C12.76 4.36801 12.38 4.33801 12 4.33801C7.59 4.33801 4 7.92801 4 12.338C4 16.748 7.59 20.338 12 20.338C16.41 20.338 20 16.748 20 12.338C20 11.958 19.97 11.578 19.92 11.198C19.84 10.648 19.34 10.268 18.79 10.348C18.24 10.428 17.86 10.928 17.94 11.478C17.98 11.758 18 12.048 18 12.338C18 15.648 15.31 18.338 12 18.338C8.69 18.338 6 15.648 6 12.338C6 9.02801 8.69 6.33801 12 6.33801C12.29 6.33801 12.58 6.35801 12.86 6.39801ZM10.67 10.848C11.08 10.478 11.12 9.84801 10.75 9.43801C10.38 9.02801 9.75 8.98801 9.34 9.35801C8.49 10.118 8.01 11.208 8.01 12.338C8.01 14.548 9.8 16.338 12.01 16.338C13.15 16.338 14.23 15.848 14.99 15.008C15.36 14.598 15.32 13.968 14.91 13.598C14.5 13.228 13.87 13.268 13.5 13.678C13.12 14.098 12.58 14.348 12.01 14.348C10.91 14.348 10.01 13.448 10.01 12.348C10.01 11.778 10.25 11.238 10.68 10.858L10.67 10.848ZM12.3 10.628C11.91 11.018 11.91 11.648 12.3 12.038C12.5 12.238 12.75 12.328 13.01 12.328C13.27 12.328 13.52 12.228 13.72 12.038L18.43 7.32801H21.02C21.29 7.32801 21.54 7.21801 21.73 7.03801L23.73 5.03801C24.02 4.74801 24.1 4.31801 23.95 3.94801C23.8 3.57801 23.43 3.32801 23.03 3.32801H21.03V1.33801C21.03 0.938013 20.79 0.568013 20.41 0.418013C20.03 0.258013 19.61 0.348013 19.32 0.638013L17.32 2.63801C17.13 2.82801 17.03 3.07801 17.03 3.34801V5.93801L12.32 10.648L12.3 10.628Z" fill="#EF4123"/>
</svg>
